<svg xmlns="http://www.w3.org/2000/svg" viewBox="0 0 340.33 382.39"><path d="M333.74,64.4l-2.43-14.61L170.17,0,9,49.79,6.6,64.4C-.68,108-1.94,148.82,2.85,185.67,7.41,220.8,17.48,252.55,32.76,280a206.88,206.88,0,0,0,56.92,65.64,208.79,208.79,0,0,0,74.63,35.25l5.86,1.48,5.86-1.48a208.79,208.79,0,0,0,74.63-35.25A206.88,206.88,0,0,0,307.58,280c15.28-27.47,25.35-59.22,29.91-94.35C342.28,148.82,341,108,333.74,64.4Zm-5.17,120.11c-4.42,34-14.13,64.66-28.85,91.13a198,198,0,0,1-54.45,62.81,199.78,199.78,0,0,1-71.44,33.74l-3.66.92-3.66-.92a199.78,199.78,0,0,1-71.44-33.74,198,198,0,0,1-54.45-62.81c-14.72-26.47-24.43-57.13-28.85-91.13-4.67-36-3.42-75.88,3.7-118.63L17,56.75,170.17,9.42,323.34,56.75l1.53,9.13C332,108.63,333.24,148.54,328.57,184.51Z"/><path d="M310.07,68.35,170.17,25.12,30.27,68.35C1.65,240,74.82,333.64,170.17,357.64,265.52,333.64,338.69,240,310.07,68.35Zm-38.06,65L151.58,253.21a10.5,10.5,0,0,1-14.8,0l-60.3-59.78a10.5,10.5,0,0,1,14.79-14.92L144.15,231l113-112.54A10.5,10.5,0,1,1,272,133.31Z"/></svg>