<svg xmlns="http://www.w3.org/2000/svg" viewBox="0 0 372.42 332.29"><path d="M69.91,226.62c-8.85,0-16.65,0-24.45,0C18.67,226.47.15,208.16.08,181.37q-.16-68,0-135.94C.15,18,18.14.09,45.6.06q103.46-.12,206.91,0c27.67,0,46,18.53,46,46.2q.06,67,0,133.94c0,27.18-18.55,45.87-45.79,46q-51,.21-102-.05a11.75,11.75,0,0,0-9.43,4.18c-10,10.48-19.5,21.53-30.57,30.71-13.26,11-29.18,17.9-45.37,23.73a26.41,26.41,0,0,1-11.7,1.09c-5.6-.66-6.8-3.8-3.26-8.32,8.93-11.42,13.73-24.62,17.22-38.42C68.66,235.27,69.09,231.3,69.91,226.62ZM57.29,115.16a20.91,20.91,0,0,0,20.78,21.53,21.36,21.36,0,0,0,21.36-20.64,21.07,21.07,0,0,0-42.14-.89Zm114.43-1.9a21.07,21.07,0,1,0-42.14-.26,21.05,21.05,0,0,0,20.74,21.14A20.83,20.83,0,0,0,171.72,113.26Zm51,18.45a20.89,20.89,0,1,0,0-41.77,21.33,21.33,0,0,0-21.09,21A20.77,20.77,0,0,0,222.73,131.71Z"/><path d="M325.74,73c26-2.48,46.09,14.75,46.36,40.51q.67,65.73,0,131.47c-.21,24.33-17.21,40.67-41.61,41.24-2.15.05-4.31,0-7.65,0,.67,6.31.42,12.44,2.14,18,2.31,7.41,6,14.4,9.35,21.46,1.89,4,1.33,6.55-3,6.62-6.21.11-12.88.07-18.57-2-20.76-7.67-37-20.83-46.27-41.56-.59-1.31-3.35-2.33-5.11-2.34-24.66-.15-49.32-.1-74-.1-10.84,0-21.67,0-32.5,0-8.58,0-15.54-3-19.88-11.17,7.09-7.66,14-15.32,21.19-22.7,1.12-1.15,3.61-1.36,5.47-1.37,41.16-.07,82.32,0,123.48-.09a40.17,40.17,0,0,0,39.84-32.72,55,55,0,0,0,.67-10.44q.06-66,0-132Z"/></svg>