<svg xmlns="http://www.w3.org/2000/svg" viewBox="0 0 402.94 239.26"><polygon points="402.94 0 402.94 195.61 387.94 195.61 387.94 15 43.54 15 43.54 0 402.94 0"/><path d="M0,52V239.26H350.94V52ZM335.94,224.26H15V67H335.94Z"/><path d="M145.43,215.26H24V76H145.43a75.84,75.84,0,0,0,0,139.26Z"/><path d="M326.94,76V215.26H205.51a75.84,75.84,0,0,0,0-139.26Z"/><polygon points="376.94 26 376.94 221.55 361.94 221.55 361.94 41 17.99 41 17.99 26 376.94 26"/><path d="M201.08,106.8l-3.86,14.5c-2.19-.77-3.89-1.3-5.55-2a35.49,35.49,0,0,0-16.14-2.3,15.1,15.1,0,0,0-5.72,1.5c-4.81,2.54-5.34,8-1.2,11.52a20.89,20.89,0,0,0,4.64,2.87c3.17,1.45,6.45,2.65,9.65,4a106.53,106.53,0,0,1,9.94,4.58c8.47,4.77,12.54,12.15,12,21.9-.58,9.46-5.34,16.31-13.73,20.5a96,96,0,0,1-10,3.87v13.44H168.18s0-8.21,0-12.76c-7.86-1.18-16.23-2-23.51-6.13,1.21-5,2.4-9.89,3.69-15.18,2.32.92,4.25,1.76,6.23,2.47,6.79,2.45,13.7,4.13,21,2.69,5.23-1,8.16-3.42,8.63-7,.62-4.71-2-7.57-5.83-9.49-3-1.5-6.13-2.53-9.13-3.93-4.81-2.24-9.75-4.28-14.27-7-13.57-8.16-11.93-26.52-2.07-34.65a37.76,37.76,0,0,1,7.22-4.57,35.72,35.72,0,0,1,6.93-2.6c.29-.07,1-.28,1-.28V90.28h13v11.4C187.8,102.64,194.67,103.38,201.08,106.8Z"/></svg>