<svg xmlns="http://www.w3.org/2000/svg" viewBox="0 0 198.04 23.5">
    <path d="M13.05.29H6.24L0,23.23H4.46l1.6-6.18h7.11l1.61,6.18h4.51Zm-6,12.87L9.6,3.35l2.55,9.81Z"
          style="fill:#2eb16b"/>
    <path d="M33,14l.08,0a6.78,6.78,0,0,0,3.09-2.48,7.17,7.17,0,0,0,1.09-4.06A6.68,6.68,0,0,0,35,1.84C33.44.62,31.16,0,28.1,0c-.79,0-1.54,0-2.26.08s-1.41.13-2.08.23-1.31.23-1.94.36V23.23h4.51V14.69l.91.05h1.44L34,23.23H39Zm-6-2.86L26.33,11V3.8c.35-.07.71-.11,1.07-.15a11.63,11.63,0,0,1,1.27-.06A5.78,5.78,0,0,1,31,4a2.9,2.9,0,0,1,1.41,1.24,4.36,4.36,0,0,1,.47,2.13,3.36,3.36,0,0,1-1.15,2.87,5.58,5.58,0,0,1-3.45.88h-.7Z"
          style="fill:#2eb16b"/>
    <path d="M56.54,12.07v11c-.84.14-1.67.24-2.5.32s-1.63.12-2.4.12a15,15,0,0,1-6.39-1.22,8.15,8.15,0,0,1-3.89-3.8,14.72,14.72,0,0,1-1.31-6.7,14.69,14.69,0,0,1,1.33-6.72,8.4,8.4,0,0,1,3.87-3.83A14.05,14.05,0,0,1,51.42,0a20.63,20.63,0,0,1,2.45.14A15.43,15.43,0,0,1,56,.57V4.45A18.44,18.44,0,0,0,54,4a14.24,14.24,0,0,0-2.08-.15,9.15,9.15,0,0,0-4,.74A4.74,4.74,0,0,0,45.6,7.1a12,12,0,0,0-.76,4.74,11.92,11.92,0,0,0,.73,4.61,4.62,4.62,0,0,0,2.13,2.44,7.38,7.38,0,0,0,3.46.73c.37,0,.75,0,1.13,0V12.07Z"
          style="fill:#2eb16b"/>
    <polygon
            points="74.67 19.3 74.67 23.23 60.54 23.23 60.54 0.29 74.52 0.29 74.52 4.23 65.05 4.23 65.05 9.53 72.97 9.53 72.97 13.47 65.05 13.47 65.05 19.3 74.67 19.3"
            style="fill:#2eb16b"/>
    <polygon
            points="95.3 0.29 95.3 23.23 90.72 23.23 82.24 7.96 82.24 23.23 77.96 23.23 77.96 0.29 82.55 0.29 91.01 15.55 91.01 0.29 95.3 0.29"
            style="fill:#2eb16b"/>
    <path d="M104.22,23.23V4.37H97.88V.29h17.27V4.37h-6.33V23.23Z" style="fill:#2eb16b"/>
    <path d="M131.05,11.31v.19a3,3,0,0,0,.43-.11Z" style="fill:#124c2d"/>
    <path d="M134.46,13a5.57,5.57,0,0,0-3-1.64,3,3,0,0,1-.43.11v-.19l.43.08a4.67,4.67,0,0,0,1.79-.91,4.74,4.74,0,0,0,1.35-1.82,5.9,5.9,0,0,0,.46-2.35,6.11,6.11,0,0,0-1-3.58,5.63,5.63,0,0,0-3-2.06A16.71,16.71,0,0,0,126,0c-.75,0-1.5,0-2.25.08s-1.49.13-2.21.23-1.39.23-2,.36V23.06c.58.09,1.21.16,1.89.23s1.35.12,2,.15,1.3.06,1.89.06a22.81,22.81,0,0,0,4.7-.42,9.29,9.29,0,0,0,3.24-1.26,5.4,5.4,0,0,0,1.86-2.07,6.48,6.48,0,0,0,.6-2.87A5.47,5.47,0,0,0,134.46,13ZM124,3.8c.44-.08.88-.13,1.3-.17s.89,0,1.39,0a5.29,5.29,0,0,1,3.14.7,2.75,2.75,0,0,1,.93,2.34,3.44,3.44,0,0,1-.38,1.69,2.39,2.39,0,0,1-1.28,1,7.11,7.11,0,0,1-2.47.34H124Zm6.93,14.71a2.83,2.83,0,0,1-1.55,1.07,9,9,0,0,1-2.82.35q-.63,0-1.23,0L124,19.82V13.36h3.1a5.4,5.4,0,0,1,3.28.8,3,3,0,0,1,1,2.49A3.29,3.29,0,0,1,130.93,18.51Z"
          style="fill:#124c2d"/>
    <path d="M150.22.29h-6.8l-6.25,22.94h4.47l1.6-6.18h7.11L152,23.23h4.51Zm-6,12.87,2.54-9.81,2.55,9.81Z"
          style="fill:#124c2d"/>
    <polygon
            points="176.34 0.29 176.34 23.23 171.75 23.23 163.27 7.94 163.27 23.23 159 23.23 159 0.29 163.58 0.29 172.05 15.55 172.05 0.29 176.34 0.29"
            style="fill:#124c2d"/>
    <polygon
            points="198.04 23.23 193.13 23.23 187.04 13.61 185.13 13.61 185.13 23.23 180.56 23.23 180.56 0.29 185.13 0.29 185.13 9.41 187.08 9.41 192.68 0.29 197.47 0.29 190.62 11.4 198.04 23.23"
            style="fill:#124c2d"/>
</svg>